<?xml version="1.0" encoding="UTF-8"?>
<svg id="Layer_2" data-name="Layer 2" xmlns="http://www.w3.org/2000/svg" viewBox="0 0 13611 3989.43">
  <defs>
    <style>
      .cls-1 {
        fill: #e0101a;
      }
    </style>
  </defs>
  <g id="Layer_1-2" data-name="Layer 1">
    <g>
      <path class="cls-1" d="m2581.4,938.69v234.67h-469.34v-234.67c0-62.33-12.16-121.82-34.22-176.24-69.67-171.87-238.26-293.11-435.13-293.11s-365.46,121.23-435.13,293.11c-22.06,54.42-34.22,113.91-34.22,176.24v469.34h1408.03v938.69c0,126.51-24.9,249.5-73.97,365.53-47.31,111.84-114.92,212.17-200.97,298.22-58.48,58.5-123.58,108.49-194.4,149.35-33.37,19.27-68.01,36.49-103.82,51.65-116.05,49.07-239.01,73.94-365.53,73.94s-249.5-24.88-365.53-73.94c-35.81-15.16-70.45-32.39-103.82-51.65-70.82-40.86-135.9-90.82-194.4-149.32-86.08-86.08-153.69-186.4-201-298.24-49.07-116.02-73.95-239.01-73.95-365.53v-234.67h469.34v234.67c0,62.33,12.16,121.82,34.22,176.24,69.67,171.87,238.24,293.11,435.13,293.11s365.46-121.23,435.13-293.11c22.06-54.42,34.22-113.91,34.22-176.24v-469.34H704.02v-938.69c0-126.51,24.88-249.48,73.95-365.53,47.31-111.82,114.92-212.17,201-298.22,58.5-58.5,123.58-108.47,194.4-149.32,33.37-19.27,68.01-36.49,103.82-51.65C1393.2,24.9,1516.2,0,1642.71,0s249.48,24.9,365.53,73.97c35.81,15.16,70.45,32.38,103.82,51.65,70.82,40.86,135.92,90.84,194.4,149.32,86.05,86.05,153.66,186.4,200.97,298.22,49.07,116.05,73.97,239.01,73.97,365.53Z"/>
      <path class="cls-1" d="m3285.41,1408.03v938.69c0,221.25-43.6,436.49-129.59,639.79-80.61,190.62-194.9,362.08-339.76,509.87-3.92,3.99-7.84,7.96-11.8,11.92-150.5,150.47-326.03,268.77-521.79,351.56-203.27,85.98-418.54,129.56-639.76,129.56s-436.51-43.6-639.79-129.56c-195.74-82.79-371.3-201.09-521.79-351.56-3.94-3.94-7.88-7.91-11.78-11.9-144.89-147.82-259.17-319.3-339.78-509.9C43.58,2783.24,0,2567.97,0,2346.72v-938.69h469.34v938.69c0,158.1,31.12,311.83,92.48,456.96,37.43,88.49,85.02,171.19,142.19,247.27,33.14,44.14,69.51,86.01,108.98,125.48,104.36,104.34,225.54,187.01,360.36,245.84,4.13,1.81,8.26,3.57,12.39,5.33,145.12,61.37,298.86,92.48,456.95,92.48s311.83-31.12,456.93-92.48c4.15-1.76,8.28-3.54,12.41-5.33,134.84-58.85,256-141.51,360.34-245.84,39.47-39.47,75.87-81.38,109.01-125.53,57.17-76.06,104.73-158.76,142.16-247.23,61.39-145.12,92.51-298.86,92.51-456.96v-938.69h469.34Z"/>
    </g>
    <g>
      <path class="cls-1" d="m4052.74,2508.94c-91.15-38.95-163.23-95.05-216.18-168.29-52.99-73.23-80.25-159.72-81.79-259.47h350.61c4.66,67.03,28.41,120.03,71.26,158.97,42.85,38.95,101.68,58.4,176.49,58.4s136.32-18.31,179.96-54.92c43.64-36.62,65.46-84.52,65.46-143.74,0-48.3-14.83-88.03-44.43-119.2-29.59-31.17-66.6-55.71-111.03-73.63-44.43-17.91-105.58-37.76-183.47-59.58-105.98-31.17-192.07-61.95-258.28-92.33-66.21-30.38-123.1-76.35-170.61-137.9-47.51-61.55-71.26-143.74-71.26-246.61,0-96.59,24.15-180.72,72.44-252.41,48.3-71.66,116.05-126.58,203.32-164.78,87.28-38.19,186.98-57.29,299.2-57.29,168.28,0,305,40.92,410.19,122.71,105.19,81.83,163.23,195.95,174.12,342.41h-359.92c-3.15-56.07-26.91-102.43-71.3-139.05-44.43-36.62-103.22-54.92-176.45-54.92-63.92,0-114.93,16.37-153.13,49.09-38.19,32.75-57.25,80.26-57.25,142.56,0,43.64,14.4,79.9,43.24,108.7,28.8,28.81,64.67,52.2,107.52,70.12,42.85,17.91,103.22,38.55,181.14,61.91,105.94,31.17,192.43,62.34,259.43,93.51,67,31.17,124.64,77.93,172.94,140.27,48.3,62.34,72.48,144.14,72.48,245.39,0,87.28-22.61,168.29-67.79,243.1-45.21,74.81-111.42,134.39-198.66,178.82-87.28,44.43-190.89,66.6-310.84,66.6-113.79,0-216.25-19.45-307.4-58.44Z"/>
      <path class="cls-1" d="m5628.09,1294.68c74.02-39.73,158.54-59.62,253.59-59.62,110.64,0,210.74,27.3,300.34,81.83,89.57,54.53,160.47,132.06,212.67,232.56,52.2,100.53,78.32,217.01,78.32,349.43s-26.12,249.72-78.32,351.76c-52.2,102.07-123.1,181.15-212.67,237.26-89.6,56.11-189.71,84.13-300.34,84.13-95.05,0-178.81-19.49-251.26-58.44-72.48-38.95-131.31-88.03-176.45-147.25v801.73h-327.25v-1911.95h327.25v186.99c42.06-59.19,100.1-108.67,174.12-148.44Zm462.75,402.03c-31.96-56.86-74.02-100.11-126.22-129.7-52.2-29.59-108.66-44.43-169.43-44.43s-114.93,15.19-167.13,45.57c-52.2,30.38-94.26,74.42-126.18,132.06-31.96,57.65-47.9,125.44-47.9,203.33s15.94,145.71,47.9,203.36c31.92,57.68,73.98,101.68,126.18,132.06,52.2,30.38,107.91,45.57,167.13,45.57s117.23-15.59,169.43-46.76c52.2-31.17,94.26-75.56,126.22-133.21,31.96-57.65,47.94-126.22,47.94-205.69s-15.98-145.28-47.94-202.18Z"/>
      <path class="cls-1" d="m7859.02,2001.72h-946.6c7.77,93.51,40.48,166.75,98.13,219.74,57.65,52.99,128.55,79.47,212.71,79.47,121.53,0,208.01-52.2,259.43-156.61h352.94c-37.4,124.68-109.06,227.12-215.04,307.37-105.98,80.26-236.07,120.35-390.3,120.35-124.68,0-236.46-27.66-335.42-82.98-98.96-55.32-176.06-133.6-231.37-234.89-55.32-101.29-82.98-218.16-82.98-350.62s27.26-251.62,81.79-352.91c54.53-101.29,130.88-179.21,229.05-233.74,98.17-54.53,211.13-81.83,338.93-81.83s233.34,26.51,330.72,79.5c97.38,52.99,172.94,128.16,226.72,225.54,53.74,97.38,80.65,209.2,80.65,335.39,0,46.79-3.12,88.85-9.35,126.22Zm-329.58-219.7c-1.58-84.12-31.96-151.52-91.14-202.18-59.22-50.63-131.67-75.96-217.37-75.96-81.04,0-149.22,24.54-204.54,73.63-55.32,49.08-89.17,117.27-101.64,204.51h614.69Z"/>
      <path class="cls-1" d="m8054.13,1550.64c52.2-101.29,123.1-179.21,212.71-233.74,89.57-54.53,189.71-81.83,300.34-81.83,96.59,0,181.14,19.49,253.59,58.44,72.44,38.98,130.48,88.07,174.12,147.25v-184.62h329.58v1294.87h-329.58v-189.32c-42.06,60.77-100.1,111.03-174.12,150.77-74.02,39.7-159.32,59.58-255.92,59.58-109.09,0-208.44-28.02-298.01-84.13-89.6-56.11-160.51-135.18-212.71-237.26-52.2-102.04-78.28-219.31-78.28-351.76s26.08-246.96,78.28-348.25Zm894,148.4c-31.17-56.86-73.23-100.5-126.18-130.88-52.99-30.38-109.88-45.57-170.65-45.57s-116.87,14.83-168.28,44.43c-51.45,29.59-93.12,72.84-125.04,129.7-31.96,56.9-47.9,124.29-47.9,202.18s15.94,146.11,47.9,204.51c31.92,58.44,73.98,103.22,126.18,134.39,52.2,31.17,107.91,46.76,167.13,46.76s117.66-15.19,170.65-45.57c52.95-30.38,95.01-73.99,126.18-130.88,31.17-56.9,46.75-125.08,46.75-204.54s-15.58-147.61-46.75-204.51Z"/>
      <path class="cls-1" d="m10271.03,2551.01l-439.39-551.61v551.61h-327.25V821.35h327.25v984.03l434.73-549.25h425.38l-570.3,649.78,574.96,645.09h-425.38Z"/>
      <path class="cls-1" d="m11098.44,917.23v1009.75c0,110.64,28.8,195.19,86.49,253.63,57.65,58.44,138.69,87.64,243.09,87.64s187.74-29.2,245.38-87.64c57.65-58.44,86.49-142.99,86.49-253.63v-1009.75h329.58v1007.42c0,138.69-30.02,255.96-90,351.76-60.01,95.84-140.26,167.93-240.76,216.22s-212.28,72.45-335.38,72.45-231.77-24.15-330.72-72.45c-98.96-48.3-177.27-120.38-234.92-216.22-57.65-95.8-86.45-213.07-86.45-351.76v-1007.42h327.21Z"/>
      <path class="cls-1" d="m12766.08,1294.68c74.02-39.73,158.54-59.62,253.59-59.62,110.64,0,210.74,27.3,300.34,81.83,89.57,54.53,160.47,132.06,212.67,232.56,52.2,100.53,78.32,217.01,78.32,349.43s-26.12,249.72-78.32,351.76c-52.2,102.07-123.1,181.15-212.67,237.26-89.6,56.11-189.71,84.13-300.34,84.13-95.05,0-178.82-19.49-251.26-58.44-72.48-38.95-131.31-88.03-176.45-147.25v801.73h-327.25v-1911.95h327.25v186.99c42.06-59.19,100.1-108.67,174.12-148.44Zm462.75,402.03c-31.96-56.86-74.02-100.11-126.22-129.7-52.2-29.59-108.66-44.43-169.43-44.43s-114.93,15.19-167.14,45.57c-52.2,30.38-94.26,74.42-126.18,132.06-31.96,57.65-47.9,125.44-47.9,203.33s15.94,145.71,47.9,203.36c31.92,57.68,73.98,101.68,126.18,132.06,52.2,30.38,107.91,45.57,167.14,45.57s117.23-15.59,169.43-46.76c52.2-31.17,94.26-75.56,126.22-133.21,31.96-57.65,47.94-126.22,47.94-205.69s-15.98-145.28-47.94-202.18Z"/>
    </g>
  </g>
</svg>