<?xml version="1.0" encoding="UTF-8"?>
<svg id="Layer_2" data-name="Layer 2" xmlns="http://www.w3.org/2000/svg" viewBox="0 0 3285.41 3989.43">
  <defs>
    <style>
      .cls-1 {
        fill: #e0101a;
      }
    </style>
  </defs>
  <g id="Layer_1-2" data-name="Layer 1">
    <g>
      <path class="cls-1" d="m2581.4,938.69v234.67h-469.34v-234.67c0-62.33-12.16-121.82-34.22-176.24-69.67-171.87-238.26-293.11-435.13-293.11s-365.46,121.23-435.13,293.11c-22.06,54.42-34.22,113.91-34.22,176.24v469.34h1408.03v938.69c0,126.51-24.9,249.5-73.97,365.53-47.31,111.84-114.92,212.17-200.97,298.22-58.48,58.5-123.58,108.49-194.4,149.35-33.37,19.27-68.01,36.49-103.82,51.65-116.05,49.07-239.01,73.94-365.53,73.94s-249.5-24.88-365.53-73.94c-35.81-15.16-70.45-32.39-103.82-51.65-70.82-40.86-135.9-90.82-194.4-149.32-86.08-86.08-153.69-186.4-201-298.24-49.07-116.02-73.95-239.01-73.95-365.53v-234.67h469.34v234.67c0,62.33,12.16,121.82,34.22,176.24,69.67,171.87,238.24,293.11,435.13,293.11s365.46-121.23,435.13-293.11c22.06-54.42,34.22-113.91,34.22-176.24v-469.34H704.02v-938.69c0-126.51,24.88-249.48,73.95-365.53,47.31-111.82,114.92-212.17,201-298.22,58.5-58.5,123.58-108.47,194.4-149.32,33.37-19.27,68.01-36.49,103.82-51.65C1393.2,24.9,1516.2,0,1642.71,0s249.48,24.9,365.53,73.97c35.81,15.16,70.45,32.38,103.82,51.65,70.82,40.86,135.92,90.84,194.4,149.32,86.05,86.05,153.66,186.4,200.97,298.22,49.07,116.05,73.97,239.01,73.97,365.53Z"/>
      <path class="cls-1" d="m3285.41,1408.03v938.69c0,221.25-43.6,436.49-129.59,639.79-80.61,190.62-194.9,362.08-339.76,509.87-3.92,3.99-7.84,7.96-11.8,11.92-150.5,150.47-326.03,268.77-521.79,351.56-203.27,85.98-418.54,129.56-639.76,129.56s-436.51-43.6-639.79-129.56c-195.74-82.79-371.3-201.09-521.79-351.56-3.94-3.94-7.88-7.91-11.78-11.9-144.89-147.82-259.17-319.3-339.78-509.9C43.58,2783.24,0,2567.97,0,2346.72v-938.69h469.34v938.69c0,158.1,31.12,311.83,92.48,456.96,37.43,88.49,85.02,171.19,142.19,247.27,33.14,44.14,69.51,86.01,108.98,125.48,104.36,104.34,225.54,187.01,360.36,245.84,4.13,1.81,8.26,3.57,12.39,5.33,145.12,61.37,298.86,92.48,456.95,92.48s311.83-31.12,456.93-92.48c4.15-1.76,8.28-3.54,12.41-5.33,134.84-58.85,256-141.51,360.34-245.84,39.47-39.47,75.87-81.38,109.01-125.53,57.17-76.06,104.73-158.76,142.16-247.23,61.39-145.12,92.51-298.86,92.51-456.96v-938.69h469.34Z"/>
    </g>
  </g>
</svg>